<svg width="944" height="186" viewBox="0 0 944 186" fill="none" xmlns="http://www.w3.org/2000/svg">
<path d="M16.1 30.5H36.5C39.5 30.5 42 29.6667 44 28C46 26.2667 47 23.8 47 20.6C47 17 46.1 14.4667 44.3 13C42.5 11.5333 39.9 10.8 36.5 10.8H16.1V30.5ZM3.6 0.599995H38.3C44.7 0.599995 49.8333 2.06666 53.7 5C57.5667 7.93333 59.5 12.3667 59.5 18.3C59.5 21.9 58.6 25 56.8 27.6C55.0667 30.1333 52.5667 32.1 49.3 33.5V33.7C53.7 34.6333 57.0333 36.7333 59.3 40C61.5667 43.2 62.7 47.2333 62.7 52.1C62.7 54.9 62.2 57.5333 61.2 60C60.2 62.4 58.6333 64.5 56.5 66.3C54.3667 68.0333 51.6333 69.4333 48.3 70.5C44.9667 71.5 41 72 36.4 72H3.6V0.599995ZM16.1 61.8H38.2C42 61.8 44.9333 60.8333 47 58.9C49.1333 56.9 50.2 54.1 50.2 50.5C50.2 46.9667 49.1333 44.2667 47 42.4C44.9333 40.4667 42 39.5 38.2 39.5H16.1V61.8ZM111.81 72H100.61V64.8H100.41C99.0102 67.4 96.9102 69.5 94.1102 71.1C91.3768 72.6333 88.5768 73.4 85.7102 73.4C78.9102 73.4 73.9768 71.7333 70.9102 68.4C67.9102 65 66.4102 59.9 66.4102 53.1V20.3H77.8102V52C77.8102 56.5333 78.6768 59.7333 80.4102 61.6C82.1435 63.4667 84.5768 64.4 87.7102 64.4C90.1102 64.4 92.1102 64.0333 93.7102 63.3C95.3102 62.5667 96.6102 61.6 97.6102 60.4C98.6102 59.1333 99.3102 57.6333 99.7102 55.9C100.177 54.1667 100.41 52.3 100.41 50.3V20.3H111.81V72ZM118.132 0.599995H129.532V11.4H118.132V0.599995ZM118.132 20.3H129.532V72H118.132V20.3ZM136.253 0.599995H147.653V72H136.253V0.599995ZM202.774 72H191.974V65H191.774C190.241 68 188.008 70.1667 185.074 71.5C182.141 72.7667 179.041 73.4 175.774 73.4C171.708 73.4 168.141 72.7 165.074 71.3C162.074 69.8333 159.574 67.8667 157.574 65.4C155.574 62.9333 154.074 60.0333 153.074 56.7C152.074 53.3 151.574 49.6667 151.574 45.8C151.574 41.1333 152.208 37.1 153.474 33.7C154.741 30.3 156.408 27.5 158.474 25.3C160.608 23.1 163.008 21.5 165.674 20.5C168.408 19.4333 171.174 18.9 173.974 18.9C175.574 18.9 177.208 19.0667 178.874 19.4C180.541 19.6667 182.141 20.1333 183.674 20.8C185.208 21.4667 186.608 22.3333 187.874 23.4C189.208 24.4 190.308 25.6 191.174 27H191.374V0.599995H202.774V72ZM162.974 46.7C162.974 48.9 163.241 51.0667 163.774 53.2C164.374 55.3333 165.241 57.2333 166.374 58.9C167.574 60.5667 169.074 61.9 170.874 62.9C172.674 63.9 174.808 64.4 177.274 64.4C179.808 64.4 181.974 63.8667 183.774 62.8C185.641 61.7333 187.141 60.3333 188.274 58.6C189.474 56.8667 190.341 54.9333 190.874 52.8C191.474 50.6 191.774 48.3667 191.774 46.1C191.774 40.3667 190.474 35.9 187.874 32.7C185.341 29.5 181.874 27.9 177.474 27.9C174.808 27.9 172.541 28.4667 170.674 29.6C168.874 30.6667 167.374 32.1 166.174 33.9C165.041 35.6333 164.208 37.6333 163.674 39.9C163.208 42.1 162.974 44.3667 162.974 46.7ZM209.507 0.599995H220.907V11.4H209.507V0.599995ZM209.507 20.3H220.907V72H209.507V20.3ZM227.328 20.3H238.128V27.9L238.328 28.1C240.061 25.2333 242.328 23 245.128 21.4C247.928 19.7333 251.028 18.9 254.428 18.9C260.095 18.9 264.561 20.3667 267.828 23.3C271.095 26.2333 272.728 30.6333 272.728 36.5V72H261.328V39.5C261.195 35.4333 260.328 32.5 258.728 30.7C257.128 28.8333 254.628 27.9 251.228 27.9C249.295 27.9 247.561 28.2667 246.028 29C244.495 29.6667 243.195 30.6333 242.128 31.9C241.061 33.1 240.228 34.5333 239.628 36.2C239.028 37.8667 238.728 39.6333 238.728 41.5V72H227.328V20.3ZM326.55 69.3C326.55 77.1 324.35 82.9 319.95 86.7C315.617 90.5667 309.35 92.5 301.15 92.5C298.55 92.5 295.917 92.2333 293.25 91.7C290.65 91.1667 288.25 90.2667 286.05 89C283.917 87.7333 282.117 86.0667 280.65 84C279.183 81.9333 278.317 79.4 278.05 76.4H289.45C289.783 78 290.35 79.3 291.15 80.3C291.95 81.3 292.883 82.0667 293.95 82.6C295.083 83.2 296.317 83.5667 297.65 83.7C298.983 83.9 300.383 84 301.85 84C306.45 84 309.817 82.8667 311.95 80.6C314.083 78.3333 315.15 75.0667 315.15 70.8V62.9H314.95C313.35 65.7667 311.15 68 308.35 69.6C305.617 71.2 302.65 72 299.45 72C295.317 72 291.783 71.3 288.85 69.9C285.983 68.4333 283.583 66.4667 281.65 64C279.783 61.4667 278.417 58.5667 277.55 55.3C276.683 52.0333 276.25 48.5333 276.25 44.8C276.25 41.3333 276.783 38.0333 277.85 34.9C278.917 31.7667 280.45 29.0333 282.45 26.7C284.45 24.3 286.883 22.4 289.75 21C292.683 19.6 295.983 18.9 299.65 18.9C302.917 18.9 305.917 19.6 308.65 21C311.383 22.3333 313.483 24.4667 314.95 27.4H315.15V20.3H326.55V69.3ZM301.25 63C303.783 63 305.917 62.5 307.65 61.5C309.45 60.4333 310.883 59.0667 311.95 57.4C313.083 55.6667 313.883 53.7333 314.35 51.6C314.883 49.4 315.15 47.2 315.15 45C315.15 42.8 314.883 40.6667 314.35 38.6C313.817 36.5333 312.983 34.7 311.85 33.1C310.783 31.5 309.35 30.2333 307.55 29.3C305.817 28.3667 303.717 27.9 301.25 27.9C298.717 27.9 296.583 28.4333 294.85 29.5C293.117 30.5667 291.717 31.9667 290.65 33.7C289.583 35.3667 288.817 37.3 288.35 39.5C287.883 41.6333 287.65 43.7667 287.65 45.9C287.65 48.0333 287.917 50.1333 288.45 52.2C288.983 54.2 289.783 56 290.85 57.6C291.983 59.2 293.383 60.5 295.05 61.5C296.783 62.5 298.85 63 301.25 63ZM348.659 0.599995H406.459V11.4H383.759V72H371.259V11.4H348.659V0.599995ZM407.137 0.599995H418.537V27.1H418.737C420.137 24.7667 422.203 22.8333 424.937 21.3C427.737 19.7 430.837 18.9 434.237 18.9C439.903 18.9 444.37 20.3667 447.637 23.3C450.903 26.2333 452.537 30.6333 452.537 36.5V72H441.137V39.5C441.003 35.4333 440.137 32.5 438.537 30.7C436.937 28.8333 434.437 27.9 431.037 27.9C429.103 27.9 427.37 28.2667 425.837 29C424.303 29.6667 423.003 30.6333 421.937 31.9C420.87 33.1 420.037 34.5333 419.437 36.2C418.837 37.8667 418.537 39.6333 418.537 41.5V72H407.137V0.599995ZM494.059 41.6C493.925 39.8 493.525 38.0667 492.859 36.4C492.259 34.7333 491.392 33.3 490.259 32.1C489.192 30.8333 487.859 29.8333 486.259 29.1C484.725 28.3 482.992 27.9 481.059 27.9C479.059 27.9 477.225 28.2667 475.559 29C473.959 29.6667 472.559 30.6333 471.359 31.9C470.225 33.1 469.292 34.5333 468.559 36.2C467.892 37.8667 467.525 39.6667 467.459 41.6H494.059ZM467.459 49.1C467.459 51.1 467.725 53.0333 468.259 54.9C468.859 56.7667 469.725 58.4 470.859 59.8C471.992 61.2 473.425 62.3333 475.159 63.2C476.892 64 478.959 64.4 481.359 64.4C484.692 64.4 487.359 63.7 489.359 62.3C491.425 60.8333 492.959 58.6667 493.959 55.8H504.759C504.159 58.6 503.125 61.1 501.659 63.3C500.192 65.5 498.425 67.3667 496.359 68.9C494.292 70.3667 491.959 71.4667 489.359 72.2C486.825 73 484.159 73.4 481.359 73.4C477.292 73.4 473.692 72.7333 470.559 71.4C467.425 70.0667 464.759 68.2 462.559 65.8C460.425 63.4 458.792 60.5333 457.659 57.2C456.592 53.8667 456.059 50.2 456.059 46.2C456.059 42.5333 456.625 39.0667 457.759 35.8C458.959 32.4667 460.625 29.5667 462.759 27.1C464.959 24.5667 467.592 22.5667 470.659 21.1C473.725 19.6333 477.192 18.9 481.059 18.9C485.125 18.9 488.759 19.7667 491.959 21.5C495.225 23.1667 497.925 25.4 500.059 28.2C502.192 31 503.725 34.2333 504.659 37.9C505.659 41.5 505.925 45.2333 505.459 49.1H467.459ZM531.057 0.599995H544.257L576.857 53.2H577.057V0.599995H588.957V72H575.757L543.257 19.5H542.957V72H531.057V0.599995ZM631.625 41.6C631.492 39.8 631.092 38.0667 630.425 36.4C629.825 34.7333 628.958 33.3 627.825 32.1C626.758 30.8333 625.425 29.8333 623.825 29.1C622.292 28.3 620.558 27.9 618.625 27.9C616.625 27.9 614.792 28.2667 613.125 29C611.525 29.6667 610.125 30.6333 608.925 31.9C607.792 33.1 606.858 34.5333 606.125 36.2C605.458 37.8667 605.092 39.6667 605.025 41.6H631.625ZM605.025 49.1C605.025 51.1 605.292 53.0333 605.825 54.9C606.425 56.7667 607.292 58.4 608.425 59.8C609.558 61.2 610.992 62.3333 612.725 63.2C614.458 64 616.525 64.4 618.925 64.4C622.258 64.4 624.925 63.7 626.925 62.3C628.992 60.8333 630.525 58.6667 631.525 55.8H642.325C641.725 58.6 640.692 61.1 639.225 63.3C637.758 65.5 635.992 67.3667 633.925 68.9C631.858 70.3667 629.525 71.4667 626.925 72.2C624.392 73 621.725 73.4 618.925 73.4C614.858 73.4 611.258 72.7333 608.125 71.4C604.992 70.0667 602.325 68.2 600.125 65.8C597.992 63.4 596.358 60.5333 595.225 57.2C594.158 53.8667 593.625 50.2 593.625 46.2C593.625 42.5333 594.192 39.0667 595.325 35.8C596.525 32.4667 598.192 29.5667 600.325 27.1C602.525 24.5667 605.158 22.5667 608.225 21.1C611.292 19.6333 614.758 18.9 618.625 18.9C622.692 18.9 626.325 19.7667 629.525 21.5C632.792 23.1667 635.492 25.4 637.625 28.2C639.758 31 641.292 34.2333 642.225 37.9C643.225 41.5 643.492 45.2333 643.025 49.1H605.025ZM659.591 44.8L641.691 20.3H655.491L666.291 36.2L677.591 20.3H690.791L673.191 44.2L692.991 72H679.291L666.191 52.9L653.491 72H640.091L659.591 44.8ZM688.202 20.3H696.802V4.79999H708.202V20.3H718.502V28.8H708.202V56.4C708.202 57.6 708.236 58.6333 708.302 59.5C708.436 60.3667 708.669 61.1 709.002 61.7C709.402 62.3 709.969 62.7667 710.702 63.1C711.436 63.3667 712.436 63.5 713.702 63.5C714.502 63.5 715.302 63.5 716.102 63.5C716.902 63.4333 717.702 63.3 718.502 63.1V71.9C717.236 72.0333 716.002 72.1667 714.802 72.3C713.602 72.4333 712.369 72.5 711.102 72.5C708.102 72.5 705.669 72.2333 703.802 71.7C702.002 71.1 700.569 70.2667 699.502 69.2C698.502 68.0667 697.802 66.6667 697.402 65C697.069 63.3333 696.869 61.4333 696.802 59.3V28.8H688.202V20.3ZM65.9 165H57.9L56 156.6C52.6667 160.4 49.3333 163.033 46 164.5C42.6667 165.967 38.8333 166.7 34.5 166.7C29.1667 166.7 24.3667 165.733 20.1 163.8C15.9 161.8 12.3333 159.1 9.4 155.7C6.46667 152.3 4.2 148.333 2.6 143.8C1.06667 139.267 0.3 134.433 0.3 129.3C0.3 124.233 1.06667 119.433 2.6 114.9C4.2 110.367 6.46667 106.4 9.4 103C12.3333 99.6 15.9 96.9 20.1 94.9C24.3667 92.9 29.1667 91.9 34.5 91.9C38.3667 91.9 42.0333 92.4333 45.5 93.5C49.0333 94.5 52.1667 96.0333 54.9 98.1C57.6333 100.1 59.9 102.633 61.7 105.7C63.5 108.767 64.6333 112.3 65.1 116.3H52.9C52.5667 113.967 51.8333 111.933 50.7 110.2C49.6333 108.4 48.2667 106.9 46.6 105.7C44.9333 104.5 43.0667 103.6 41 103C38.9333 102.4 36.7667 102.1 34.5 102.1C30.7 102.1 27.4 102.867 24.6 104.4C21.8667 105.933 19.6333 108 17.9 110.6C16.1667 113.133 14.8667 116.033 14 119.3C13.2 122.567 12.8 125.9 12.8 129.3C12.8 132.7 13.2 136.033 14 139.3C14.8667 142.567 16.1667 145.5 17.9 148.1C19.6333 150.633 21.8667 152.667 24.6 154.2C27.4 155.733 30.7 156.5 34.5 156.5C37.7 156.567 40.5333 156.167 43 155.3C45.4667 154.367 47.5333 153.067 49.2 151.4C50.9333 149.667 52.2333 147.567 53.1 145.1C53.9667 142.633 54.4333 139.9 54.5 136.9H35.5V127.4H65.9V165ZM107.379 134.6C107.246 132.8 106.846 131.067 106.179 129.4C105.579 127.733 104.712 126.3 103.579 125.1C102.512 123.833 101.179 122.833 99.5789 122.1C98.0456 121.3 96.3122 120.9 94.3789 120.9C92.3789 120.9 90.5456 121.267 88.8789 122C87.2789 122.667 85.8789 123.633 84.6789 124.9C83.5456 126.1 82.6122 127.533 81.8789 129.2C81.2122 130.867 80.8456 132.667 80.7789 134.6H107.379ZM80.7789 142.1C80.7789 144.1 81.0456 146.033 81.5789 147.9C82.1789 149.767 83.0456 151.4 84.1789 152.8C85.3122 154.2 86.7456 155.333 88.4789 156.2C90.2122 157 92.2789 157.4 94.6789 157.4C98.0122 157.4 100.679 156.7 102.679 155.3C104.746 153.833 106.279 151.667 107.279 148.8H118.079C117.479 151.6 116.446 154.1 114.979 156.3C113.512 158.5 111.746 160.367 109.679 161.9C107.612 163.367 105.279 164.467 102.679 165.2C100.146 166 97.4789 166.4 94.6789 166.4C90.6122 166.4 87.0122 165.733 83.8789 164.4C80.7456 163.067 78.0789 161.2 75.8789 158.8C73.7456 156.4 72.1122 153.533 70.9789 150.2C69.9122 146.867 69.3789 143.2 69.3789 139.2C69.3789 135.533 69.9456 132.067 71.0789 128.8C72.2789 125.467 73.9456 122.567 76.0789 120.1C78.2789 117.567 80.9122 115.567 83.9789 114.1C87.0456 112.633 90.5122 111.9 94.3789 111.9C98.4456 111.9 102.079 112.767 105.279 114.5C108.546 116.167 111.246 118.4 113.379 121.2C115.512 124 117.046 127.233 117.979 130.9C118.979 134.5 119.246 138.233 118.779 142.1H80.7789ZM121.445 113.3H132.245V120.9L132.445 121.1C134.179 118.233 136.445 116 139.245 114.4C142.045 112.733 145.145 111.9 148.545 111.9C154.212 111.9 158.679 113.367 161.945 116.3C165.212 119.233 166.845 123.633 166.845 129.5V165H155.445V132.5C155.312 128.433 154.445 125.5 152.845 123.7C151.245 121.833 148.745 120.9 145.345 120.9C143.412 120.9 141.679 121.267 140.145 122C138.612 122.667 137.312 123.633 136.245 124.9C135.179 126.1 134.345 127.533 133.745 129.2C133.145 130.867 132.845 132.633 132.845 134.5V165H121.445V113.3ZM208.367 134.6C208.234 132.8 207.834 131.067 207.167 129.4C206.567 127.733 205.701 126.3 204.567 125.1C203.501 123.833 202.167 122.833 200.567 122.1C199.034 121.3 197.301 120.9 195.367 120.9C193.367 120.9 191.534 121.267 189.867 122C188.267 122.667 186.867 123.633 185.667 124.9C184.534 126.1 183.601 127.533 182.867 129.2C182.201 130.867 181.834 132.667 181.767 134.6H208.367ZM181.767 142.1C181.767 144.1 182.034 146.033 182.567 147.9C183.167 149.767 184.034 151.4 185.167 152.8C186.301 154.2 187.734 155.333 189.467 156.2C191.201 157 193.267 157.4 195.667 157.4C199.001 157.4 201.667 156.7 203.667 155.3C205.734 153.833 207.267 151.667 208.267 148.8H219.067C218.467 151.6 217.434 154.1 215.967 156.3C214.501 158.5 212.734 160.367 210.667 161.9C208.601 163.367 206.267 164.467 203.667 165.2C201.134 166 198.467 166.4 195.667 166.4C191.601 166.4 188.001 165.733 184.867 164.4C181.734 163.067 179.067 161.2 176.867 158.8C174.734 156.4 173.101 153.533 171.967 150.2C170.901 146.867 170.367 143.2 170.367 139.2C170.367 135.533 170.934 132.067 172.067 128.8C173.267 125.467 174.934 122.567 177.067 120.1C179.267 117.567 181.901 115.567 184.967 114.1C188.034 112.633 191.501 111.9 195.367 111.9C199.434 111.9 203.067 112.767 206.267 114.5C209.534 116.167 212.234 118.4 214.367 121.2C216.501 124 218.034 127.233 218.967 130.9C219.967 134.5 220.234 138.233 219.767 142.1H181.767ZM222.434 113.3H233.134V123.3H233.334C233.667 121.9 234.3 120.533 235.234 119.2C236.234 117.867 237.4 116.667 238.734 115.6C240.134 114.467 241.667 113.567 243.334 112.9C245 112.233 246.7 111.9 248.434 111.9C249.767 111.9 250.667 111.933 251.134 112C251.667 112.067 252.2 112.133 252.734 112.2V123.2C251.934 123.067 251.1 122.967 250.234 122.9C249.434 122.767 248.634 122.7 247.834 122.7C245.9 122.7 244.067 123.1 242.334 123.9C240.667 124.633 239.2 125.767 237.934 127.3C236.667 128.767 235.667 130.6 234.934 132.8C234.2 135 233.834 137.533 233.834 140.4V165H222.434V113.3ZM294.89 153.5C294.89 154.9 295.057 155.9 295.39 156.5C295.79 157.1 296.523 157.4 297.59 157.4C297.923 157.4 298.323 157.4 298.79 157.4C299.257 157.4 299.79 157.333 300.39 157.2V165.1C299.99 165.233 299.457 165.367 298.79 165.5C298.19 165.7 297.557 165.867 296.89 166C296.223 166.133 295.557 166.233 294.89 166.3C294.223 166.367 293.657 166.4 293.19 166.4C290.857 166.4 288.923 165.933 287.39 165C285.857 164.067 284.857 162.433 284.39 160.1C282.123 162.3 279.323 163.9 275.99 164.9C272.723 165.9 269.557 166.4 266.49 166.4C264.157 166.4 261.923 166.067 259.79 165.4C257.657 164.8 255.757 163.9 254.09 162.7C252.49 161.433 251.19 159.867 250.19 158C249.257 156.067 248.79 153.833 248.79 151.3C248.79 148.1 249.357 145.5 250.49 143.5C251.69 141.5 253.223 139.933 255.09 138.8C257.023 137.667 259.157 136.867 261.49 136.4C263.89 135.867 266.29 135.467 268.69 135.2C270.757 134.8 272.723 134.533 274.59 134.4C276.457 134.2 278.09 133.9 279.49 133.5C280.957 133.1 282.09 132.5 282.89 131.7C283.757 130.833 284.19 129.567 284.19 127.9C284.19 126.433 283.823 125.233 283.09 124.3C282.423 123.367 281.557 122.667 280.49 122.2C279.49 121.667 278.357 121.333 277.09 121.2C275.823 121 274.623 120.9 273.49 120.9C270.29 120.9 267.657 121.567 265.59 122.9C263.523 124.233 262.357 126.3 262.09 129.1H250.69C250.89 125.767 251.69 123 253.09 120.8C254.49 118.6 256.257 116.833 258.39 115.5C260.59 114.167 263.057 113.233 265.79 112.7C268.523 112.167 271.323 111.9 274.19 111.9C276.723 111.9 279.223 112.167 281.69 112.7C284.157 113.233 286.357 114.1 288.29 115.3C290.29 116.5 291.89 118.067 293.09 120C294.29 121.867 294.89 124.167 294.89 126.9V153.5ZM283.49 139.1C281.757 140.233 279.623 140.933 277.09 141.2C274.557 141.4 272.023 141.733 269.49 142.2C268.29 142.4 267.123 142.7 265.99 143.1C264.857 143.433 263.857 143.933 262.99 144.6C262.123 145.2 261.423 146.033 260.89 147.1C260.423 148.1 260.19 149.333 260.19 150.8C260.19 152.067 260.557 153.133 261.29 154C262.023 154.867 262.89 155.567 263.89 156.1C264.957 156.567 266.09 156.9 267.29 157.1C268.557 157.3 269.69 157.4 270.69 157.4C271.957 157.4 273.323 157.233 274.79 156.9C276.257 156.567 277.623 156 278.89 155.2C280.223 154.4 281.323 153.4 282.19 152.2C283.057 150.933 283.49 149.4 283.49 147.6V139.1ZM295.956 113.3H304.556V97.8H315.956V113.3H326.256V121.8H315.956V149.4C315.956 150.6 315.99 151.633 316.056 152.5C316.19 153.367 316.423 154.1 316.756 154.7C317.156 155.3 317.723 155.767 318.456 156.1C319.19 156.367 320.19 156.5 321.456 156.5C322.256 156.5 323.056 156.5 323.856 156.5C324.656 156.433 325.456 156.3 326.256 156.1V164.9C324.99 165.033 323.756 165.167 322.556 165.3C321.356 165.433 320.123 165.5 318.856 165.5C315.856 165.5 313.423 165.233 311.556 164.7C309.756 164.1 308.323 163.267 307.256 162.2C306.256 161.067 305.556 159.667 305.156 158C304.823 156.333 304.623 154.433 304.556 152.3V121.8H295.956V113.3ZM328.757 93.6H340.157V104.4H328.757V93.6ZM328.757 113.3H340.157V165H328.757V113.3ZM370.278 166.4C366.145 166.4 362.445 165.733 359.178 164.4C355.978 163 353.245 161.1 350.978 158.7C348.778 156.3 347.078 153.433 345.878 150.1C344.745 146.767 344.178 143.1 344.178 139.1C344.178 135.167 344.745 131.533 345.878 128.2C347.078 124.867 348.778 122 350.978 119.6C353.245 117.2 355.978 115.333 359.178 114C362.445 112.6 366.145 111.9 370.278 111.9C374.411 111.9 378.078 112.6 381.278 114C384.545 115.333 387.278 117.2 389.478 119.6C391.745 122 393.445 124.867 394.578 128.2C395.778 131.533 396.378 135.167 396.378 139.1C396.378 143.1 395.778 146.767 394.578 150.1C393.445 153.433 391.745 156.3 389.478 158.7C387.278 161.1 384.545 163 381.278 164.4C378.078 165.733 374.411 166.4 370.278 166.4ZM370.278 157.4C372.811 157.4 375.011 156.867 376.878 155.8C378.745 154.733 380.278 153.333 381.478 151.6C382.678 149.867 383.545 147.933 384.078 145.8C384.678 143.6 384.978 141.367 384.978 139.1C384.978 136.9 384.678 134.7 384.078 132.5C383.545 130.3 382.678 128.367 381.478 126.7C380.278 124.967 378.745 123.567 376.878 122.5C375.011 121.433 372.811 120.9 370.278 120.9C367.745 120.9 365.545 121.433 363.678 122.5C361.811 123.567 360.278 124.967 359.078 126.7C357.878 128.367 356.978 130.3 356.378 132.5C355.845 134.7 355.578 136.9 355.578 139.1C355.578 141.367 355.845 143.6 356.378 145.8C356.978 147.933 357.878 149.867 359.078 151.6C360.278 153.333 361.811 154.733 363.678 155.8C365.545 156.867 367.745 157.4 370.278 157.4ZM399.855 113.3H410.655V120.9L410.855 121.1C412.589 118.233 414.855 116 417.655 114.4C420.455 112.733 423.555 111.9 426.955 111.9C432.622 111.9 437.089 113.367 440.355 116.3C443.622 119.233 445.255 123.633 445.255 129.5V165H433.855V132.5C433.722 128.433 432.855 125.5 431.255 123.7C429.655 121.833 427.155 120.9 423.755 120.9C421.822 120.9 420.089 121.267 418.555 122C417.022 122.667 415.722 123.633 414.655 124.9C413.589 126.1 412.755 127.533 412.155 129.2C411.555 130.867 411.255 132.633 411.255 134.5V165H399.855V113.3ZM454.077 93.6H464.277V121.8H454.077V93.6ZM481.709 148.4C482.043 151.733 483.309 154.067 485.509 155.4C487.709 156.733 490.343 157.4 493.409 157.4C494.476 157.4 495.676 157.333 497.009 157.2C498.409 157 499.709 156.667 500.909 156.2C502.109 155.733 503.076 155.067 503.809 154.2C504.609 153.267 504.976 152.067 504.909 150.6C504.843 149.133 504.309 147.933 503.309 147C502.309 146.067 501.009 145.333 499.409 144.8C497.876 144.2 496.109 143.7 494.109 143.3C492.109 142.9 490.076 142.467 488.009 142C485.876 141.533 483.809 140.967 481.809 140.3C479.876 139.633 478.109 138.733 476.509 137.6C474.976 136.467 473.743 135.033 472.809 133.3C471.876 131.5 471.409 129.3 471.409 126.7C471.409 123.9 472.076 121.567 473.409 119.7C474.809 117.767 476.543 116.233 478.609 115.1C480.743 113.9 483.076 113.067 485.609 112.6C488.209 112.133 490.676 111.9 493.009 111.9C495.676 111.9 498.209 112.2 500.609 112.8C503.076 113.333 505.276 114.233 507.209 115.5C509.209 116.767 510.843 118.433 512.109 120.5C513.443 122.5 514.276 124.933 514.609 127.8H502.709C502.176 125.067 500.909 123.233 498.909 122.3C496.976 121.367 494.743 120.9 492.209 120.9C491.409 120.9 490.443 120.967 489.309 121.1C488.243 121.233 487.209 121.5 486.209 121.9C485.276 122.233 484.476 122.767 483.809 123.5C483.143 124.167 482.809 125.067 482.809 126.2C482.809 127.6 483.276 128.733 484.209 129.6C485.209 130.467 486.476 131.2 488.009 131.8C489.609 132.333 491.409 132.8 493.409 133.2C495.409 133.6 497.476 134.033 499.609 134.5C501.676 134.967 503.709 135.533 505.709 136.2C507.709 136.867 509.476 137.767 511.009 138.9C512.609 140.033 513.876 141.467 514.809 143.2C515.809 144.933 516.309 147.067 516.309 149.6C516.309 152.667 515.609 155.267 514.209 157.4C512.809 159.533 510.976 161.267 508.709 162.6C506.509 163.933 504.043 164.9 501.309 165.5C498.576 166.1 495.876 166.4 493.209 166.4C489.943 166.4 486.909 166.033 484.109 165.3C481.376 164.567 478.976 163.467 476.909 162C474.909 160.467 473.309 158.6 472.109 156.4C470.976 154.133 470.376 151.467 470.309 148.4H481.709Z" fill="black"/>
<path d="M542.397 93.6H593.797V104.4H554.897V123.1H590.897V133.3H554.897V154.2H594.497V165H542.397V93.6ZM597.785 113.3H608.585V120.9L608.785 121.1C610.518 118.233 612.785 116 615.585 114.4C618.385 112.733 621.485 111.9 624.885 111.9C630.552 111.9 635.018 113.367 638.285 116.3C641.552 119.233 643.185 123.633 643.185 129.5V165H631.785V132.5C631.652 128.433 630.785 125.5 629.185 123.7C627.585 121.833 625.085 120.9 621.685 120.9C619.752 120.9 618.018 121.267 616.485 122C614.952 122.667 613.652 123.633 612.585 124.9C611.518 126.1 610.685 127.533 610.085 129.2C609.485 130.867 609.185 132.633 609.185 134.5V165H597.785V113.3ZM697.007 162.3C697.007 170.1 694.807 175.9 690.407 179.7C686.074 183.567 679.807 185.5 671.607 185.5C669.007 185.5 666.374 185.233 663.707 184.7C661.107 184.167 658.707 183.267 656.507 182C654.374 180.733 652.574 179.067 651.107 177C649.64 174.933 648.774 172.4 648.507 169.4H659.907C660.24 171 660.807 172.3 661.607 173.3C662.407 174.3 663.34 175.067 664.407 175.6C665.54 176.2 666.774 176.567 668.107 176.7C669.44 176.9 670.84 177 672.307 177C676.907 177 680.274 175.867 682.407 173.6C684.54 171.333 685.607 168.067 685.607 163.8V155.9H685.407C683.807 158.767 681.607 161 678.807 162.6C676.074 164.2 673.107 165 669.907 165C665.774 165 662.24 164.3 659.307 162.9C656.44 161.433 654.04 159.467 652.107 157C650.24 154.467 648.874 151.567 648.007 148.3C647.14 145.033 646.707 141.533 646.707 137.8C646.707 134.333 647.24 131.033 648.307 127.9C649.374 124.767 650.907 122.033 652.907 119.7C654.907 117.3 657.34 115.4 660.207 114C663.14 112.6 666.44 111.9 670.107 111.9C673.374 111.9 676.374 112.6 679.107 114C681.84 115.333 683.94 117.467 685.407 120.4H685.607V113.3H697.007V162.3ZM671.707 156C674.24 156 676.374 155.5 678.107 154.5C679.907 153.433 681.34 152.067 682.407 150.4C683.54 148.667 684.34 146.733 684.807 144.6C685.34 142.4 685.607 140.2 685.607 138C685.607 135.8 685.34 133.667 684.807 131.6C684.274 129.533 683.44 127.7 682.307 126.1C681.24 124.5 679.807 123.233 678.007 122.3C676.274 121.367 674.174 120.9 671.707 120.9C669.174 120.9 667.04 121.433 665.307 122.5C663.574 123.567 662.174 124.967 661.107 126.7C660.04 128.367 659.274 130.3 658.807 132.5C658.34 134.633 658.107 136.767 658.107 138.9C658.107 141.033 658.374 143.133 658.907 145.2C659.44 147.2 660.24 149 661.307 150.6C662.44 152.2 663.84 153.5 665.507 154.5C667.24 155.5 669.307 156 671.707 156ZM702.784 93.6H714.184V104.4H702.784V93.6ZM702.784 113.3H714.184V165H702.784V113.3ZM720.605 113.3H731.405V120.9L731.605 121.1C733.339 118.233 735.605 116 738.405 114.4C741.205 112.733 744.305 111.9 747.705 111.9C753.372 111.9 757.839 113.367 761.105 116.3C764.372 119.233 766.005 123.633 766.005 129.5V165H754.605V132.5C754.472 128.433 753.605 125.5 752.005 123.7C750.405 121.833 747.905 120.9 744.505 120.9C742.572 120.9 740.839 121.267 739.305 122C737.772 122.667 736.472 123.633 735.405 124.9C734.339 126.1 733.505 127.533 732.905 129.2C732.305 130.867 732.005 132.633 732.005 134.5V165H720.605V113.3ZM807.527 134.6C807.394 132.8 806.994 131.067 806.327 129.4C805.727 127.733 804.861 126.3 803.727 125.1C802.661 123.833 801.327 122.833 799.727 122.1C798.194 121.3 796.461 120.9 794.527 120.9C792.527 120.9 790.694 121.267 789.027 122C787.427 122.667 786.027 123.633 784.827 124.9C783.694 126.1 782.761 127.533 782.027 129.2C781.361 130.867 780.994 132.667 780.927 134.6H807.527ZM780.927 142.1C780.927 144.1 781.194 146.033 781.727 147.9C782.327 149.767 783.194 151.4 784.327 152.8C785.461 154.2 786.894 155.333 788.627 156.2C790.361 157 792.427 157.4 794.827 157.4C798.161 157.4 800.827 156.7 802.827 155.3C804.894 153.833 806.427 151.667 807.427 148.8H818.227C817.627 151.6 816.594 154.1 815.127 156.3C813.661 158.5 811.894 160.367 809.827 161.9C807.761 163.367 805.427 164.467 802.827 165.2C800.294 166 797.627 166.4 794.827 166.4C790.761 166.4 787.161 165.733 784.027 164.4C780.894 163.067 778.227 161.2 776.027 158.8C773.894 156.4 772.261 153.533 771.127 150.2C770.061 146.867 769.527 143.2 769.527 139.2C769.527 135.533 770.094 132.067 771.227 128.8C772.427 125.467 774.094 122.567 776.227 120.1C778.427 117.567 781.061 115.567 784.127 114.1C787.194 112.633 790.661 111.9 794.527 111.9C798.594 111.9 802.227 112.767 805.427 114.5C808.694 116.167 811.394 118.4 813.527 121.2C815.661 124 817.194 127.233 818.127 130.9C819.127 134.5 819.394 138.233 818.927 142.1H780.927ZM857.094 134.6C856.96 132.8 856.56 131.067 855.894 129.4C855.294 127.733 854.427 126.3 853.294 125.1C852.227 123.833 850.894 122.833 849.294 122.1C847.76 121.3 846.027 120.9 844.094 120.9C842.094 120.9 840.26 121.267 838.594 122C836.994 122.667 835.594 123.633 834.394 124.9C833.26 126.1 832.327 127.533 831.594 129.2C830.927 130.867 830.56 132.667 830.494 134.6H857.094ZM830.494 142.1C830.494 144.1 830.76 146.033 831.294 147.9C831.894 149.767 832.76 151.4 833.894 152.8C835.027 154.2 836.46 155.333 838.194 156.2C839.927 157 841.994 157.4 844.394 157.4C847.727 157.4 850.394 156.7 852.394 155.3C854.46 153.833 855.994 151.667 856.994 148.8H867.794C867.194 151.6 866.16 154.1 864.694 156.3C863.227 158.5 861.46 160.367 859.394 161.9C857.327 163.367 854.994 164.467 852.394 165.2C849.86 166 847.194 166.4 844.394 166.4C840.327 166.4 836.727 165.733 833.594 164.4C830.46 163.067 827.794 161.2 825.594 158.8C823.46 156.4 821.827 153.533 820.694 150.2C819.627 146.867 819.094 143.2 819.094 139.2C819.094 135.533 819.66 132.067 820.794 128.8C821.994 125.467 823.66 122.567 825.794 120.1C827.994 117.567 830.627 115.567 833.694 114.1C836.76 112.633 840.227 111.9 844.094 111.9C848.16 111.9 851.794 112.767 854.994 114.5C858.26 116.167 860.96 118.4 863.094 121.2C865.227 124 866.76 127.233 867.694 130.9C868.694 134.5 868.96 138.233 868.494 142.1H830.494ZM871.16 113.3H881.86V123.3H882.06C882.393 121.9 883.027 120.533 883.96 119.2C884.96 117.867 886.127 116.667 887.46 115.6C888.86 114.467 890.393 113.567 892.06 112.9C893.727 112.233 895.427 111.9 897.16 111.9C898.493 111.9 899.393 111.933 899.86 112C900.393 112.067 900.927 112.133 901.46 112.2V123.2C900.66 123.067 899.827 122.967 898.96 122.9C898.16 122.767 897.36 122.7 896.56 122.7C894.627 122.7 892.793 123.1 891.06 123.9C889.393 124.633 887.927 125.767 886.66 127.3C885.393 128.767 884.393 130.6 883.66 132.8C882.927 135 882.56 137.533 882.56 140.4V165H871.16V113.3ZM908.916 148.4C909.25 151.733 910.516 154.067 912.716 155.4C914.916 156.733 917.55 157.4 920.616 157.4C921.683 157.4 922.883 157.333 924.216 157.2C925.616 157 926.916 156.667 928.116 156.2C929.316 155.733 930.283 155.067 931.016 154.2C931.816 153.267 932.183 152.067 932.116 150.6C932.05 149.133 931.516 147.933 930.516 147C929.516 146.067 928.216 145.333 926.616 144.8C925.083 144.2 923.316 143.7 921.316 143.3C919.316 142.9 917.283 142.467 915.216 142C913.083 141.533 911.016 140.967 909.016 140.3C907.083 139.633 905.316 138.733 903.716 137.6C902.183 136.467 900.95 135.033 900.016 133.3C899.083 131.5 898.616 129.3 898.616 126.7C898.616 123.9 899.283 121.567 900.616 119.7C902.016 117.767 903.75 116.233 905.816 115.1C907.95 113.9 910.283 113.067 912.816 112.6C915.416 112.133 917.883 111.9 920.216 111.9C922.883 111.9 925.416 112.2 927.816 112.8C930.283 113.333 932.483 114.233 934.416 115.5C936.416 116.767 938.05 118.433 939.316 120.5C940.65 122.5 941.483 124.933 941.816 127.8H929.916C929.383 125.067 928.116 123.233 926.116 122.3C924.183 121.367 921.95 120.9 919.416 120.9C918.616 120.9 917.65 120.967 916.516 121.1C915.45 121.233 914.416 121.5 913.416 121.9C912.483 122.233 911.683 122.767 911.016 123.5C910.35 124.167 910.016 125.067 910.016 126.2C910.016 127.6 910.483 128.733 911.416 129.6C912.416 130.467 913.683 131.2 915.216 131.8C916.816 132.333 918.616 132.8 920.616 133.2C922.616 133.6 924.683 134.033 926.816 134.5C928.883 134.967 930.916 135.533 932.916 136.2C934.916 136.867 936.683 137.767 938.216 138.9C939.816 140.033 941.083 141.467 942.016 143.2C943.016 144.933 943.516 147.067 943.516 149.6C943.516 152.667 942.816 155.267 941.416 157.4C940.016 159.533 938.183 161.267 935.916 162.6C933.716 163.933 931.25 164.9 928.516 165.5C925.783 166.1 923.083 166.4 920.416 166.4C917.15 166.4 914.116 166.033 911.316 165.3C908.583 164.567 906.183 163.467 904.116 162C902.116 160.467 900.516 158.6 899.316 156.4C898.183 154.133 897.583 151.467 897.516 148.4H908.916Z" fill="#017FE0"/>
</svg>
