<svg width="1147" height="119" viewBox="0 0 1147 119" fill="none" xmlns="http://www.w3.org/2000/svg">
<path d="M76.875 53.5703C76.875 62.2031 75.3906 69.625 72.4219 75.8359C69.4531 82.0469 65.3125 86.832 60 90.1914C54.7266 93.5117 48.5352 95.1719 41.4258 95.1719C34.4727 95.1719 28.3008 93.5117 22.9102 90.1914C17.5586 86.832 13.3594 82.0469 10.3125 75.8359C7.30469 69.625 5.80078 62.2031 5.80078 53.5703V49.1758C5.80078 40.543 7.30469 33.1211 10.3125 26.9102C13.3203 20.6602 17.5 15.875 22.8516 12.5547C28.2031 9.19531 34.3555 7.51562 41.3086 7.51562C48.418 7.51562 54.6289 9.19531 59.9414 12.5547C65.2539 15.875 69.3945 20.6602 72.3633 26.9102C75.3711 33.1211 76.875 40.543 76.875 49.1758V53.5703ZM61.6992 49.0586C61.6992 42.7695 60.8984 37.4766 59.2969 33.1797C57.6953 28.8438 55.3711 25.582 52.3242 23.3945C49.2773 21.168 45.6055 20.0547 41.3086 20.0547C37.0898 20.0547 33.457 21.168 30.4102 23.3945C27.4023 25.582 25.0781 28.8438 23.4375 33.1797C21.8359 37.4766 21.0352 42.7695 21.0352 49.0586V53.5703C21.0352 59.8594 21.8555 65.1719 23.4961 69.5078C25.1367 73.8438 27.4805 77.125 30.5273 79.3516C33.5742 81.5781 37.207 82.6914 41.4258 82.6914C45.7617 82.6914 49.4336 81.5781 52.4414 79.3516C55.4883 77.125 57.793 73.8438 59.3555 69.5078C60.918 65.1719 61.6992 59.8594 61.6992 53.5703V49.0586ZM120.827 30.6016H135.359V94H121.648L120.827 79V30.6016ZM127.683 65.6406C127.683 71.3438 126.843 76.4219 125.163 80.875C123.484 85.2891 120.866 88.7852 117.312 91.3633C113.757 93.9023 109.148 95.1719 103.484 95.1719C97.2336 95.1719 92.175 93.3359 88.3078 89.6641C84.4406 85.9922 82.507 79.957 82.507 71.5586V30.6016H97.0383V71.6758C97.0383 74.6055 97.4875 76.9297 98.3859 78.6484C99.3234 80.3281 100.554 81.5195 102.077 82.2227C103.601 82.9258 105.28 83.2773 107.116 83.2773C111.062 83.2773 114.167 82.5156 116.433 80.9922C118.738 79.4297 120.378 77.3203 121.355 74.6641C122.331 72.0078 122.82 69.0391 122.82 65.7578L127.683 65.6406ZM156.987 94H142.455V30.6016H156.284L156.987 43.0234V94ZM176.088 43.9609C175.19 43.8047 174.233 43.6875 173.217 43.6094C172.241 43.5312 171.264 43.4922 170.288 43.4922C167.084 43.4922 164.409 44.0781 162.26 45.25C160.151 46.3828 158.549 48.0234 157.455 50.1719C156.362 52.2812 155.717 54.7812 155.522 57.6719L152.182 57.7305C152.182 52.3789 152.885 47.5742 154.291 43.3164C155.698 39.0586 157.807 35.6797 160.62 33.1797C163.432 30.6797 166.948 29.4297 171.166 29.4297C171.987 29.4297 172.905 29.5078 173.92 29.6641C174.936 29.8203 175.698 29.9961 176.205 30.1914L176.088 43.9609Z" fill="black"/>
<path d="M212.372 55.6797L212.255 44.6641H231.122C235.848 44.6641 239.501 43.6289 242.079 41.5586C244.657 39.4883 245.946 36.5586 245.946 32.7695C245.946 28.5898 244.716 25.5625 242.255 23.6875C239.833 21.8125 236.063 20.875 230.946 20.875H216.942V94H201.825V8.6875H230.946C240.36 8.6875 247.723 10.5625 253.036 14.3125C258.387 18.0234 261.063 23.8438 261.063 31.7734C261.063 35.2891 260.204 38.5117 258.485 41.4414C256.805 44.3711 254.305 46.7539 250.985 48.5898C247.665 50.4258 243.524 51.5 238.563 51.8125L233.993 55.6797H212.372ZM207.567 94L214.423 81.8711H233.348C238.192 81.8711 241.845 80.6797 244.305 78.2969C246.766 75.9141 247.997 72.8281 247.997 69.0391C247.997 66.2656 247.509 63.8828 246.532 61.8906C245.555 59.8984 244.052 58.375 242.02 57.3203C239.989 56.2266 237.313 55.6797 233.993 55.6797H217.352L217.47 44.6641H239.032L242.43 48.8828C247.157 48.9609 251.024 49.957 254.032 51.8711C257.079 53.7852 259.345 56.2656 260.829 59.3125C262.313 62.3203 263.055 65.582 263.055 69.0977C263.055 77.2617 260.419 83.4531 255.145 87.6719C249.911 91.8906 242.645 94 233.348 94H207.567ZM284.684 94H270.152V4H284.684V94ZM290.14 61.7148C290.14 55.543 291.312 50.0352 293.655 45.1914C295.999 40.3477 299.359 36.5195 303.734 33.707C308.148 30.8555 313.441 29.4297 319.612 29.4297C325.862 29.4297 331.195 30.8555 335.609 33.707C340.023 36.5195 343.382 40.3477 345.687 45.1914C348.03 50.0352 349.202 55.543 349.202 61.7148V62.9453C349.202 69.0781 348.03 74.5859 345.687 79.4688C343.382 84.3125 340.023 88.1406 335.609 90.9531C331.234 93.7656 325.941 95.1719 319.73 95.1719C313.519 95.1719 308.206 93.7656 303.792 90.9531C299.378 88.1406 295.999 84.3125 293.655 79.4688C291.312 74.5859 290.14 69.0781 290.14 62.9453V61.7148ZM304.671 62.9453C304.671 66.6953 305.198 70.1328 306.253 73.2578C307.308 76.3438 308.929 78.8242 311.116 80.6992C313.343 82.5742 316.214 83.5117 319.73 83.5117C323.206 83.5117 326.038 82.5742 328.226 80.6992C330.452 78.8242 332.073 76.3438 333.089 73.2578C334.144 70.1328 334.671 66.6953 334.671 62.9453V61.7148C334.671 58.0039 334.144 54.5859 333.089 51.4609C332.073 48.3359 330.452 45.8359 328.226 43.9609C325.999 42.0469 323.128 41.0898 319.612 41.0898C316.136 41.0898 313.284 42.0469 311.058 43.9609C308.87 45.8359 307.249 48.3359 306.195 51.4609C305.179 54.5859 304.671 58.0039 304.671 61.7148V62.9453ZM407.569 30.6016V92.1836C407.569 97.8867 406.338 102.73 403.877 106.715C401.416 110.738 397.998 113.785 393.623 115.855C389.288 117.926 384.248 118.961 378.506 118.961C376.084 118.961 373.389 118.609 370.42 117.906C367.491 117.242 364.639 116.148 361.866 114.625C359.092 113.102 356.768 111.109 354.893 108.648L361.69 99.8594C363.955 102.477 366.436 104.41 369.131 105.66C371.866 106.949 374.737 107.594 377.745 107.594C382.471 107.594 386.182 106.285 388.877 103.668C391.612 101.051 392.979 97.3008 392.979 92.418V45.0156L394.327 30.6016H407.569ZM351.319 61.7734C351.319 55.3672 352.334 49.7422 354.366 44.8984C356.436 40.0156 359.366 36.2266 363.155 33.5312C366.983 30.7969 371.514 29.4297 376.748 29.4297C380.889 29.4297 384.424 30.1914 387.354 31.7148C390.284 33.1992 392.705 35.3477 394.62 38.1602C396.573 40.9336 398.096 44.2539 399.19 48.1211C400.323 51.9492 401.163 56.1875 401.709 60.8359V64.2344C401.006 70.25 399.698 75.582 397.784 80.2305C395.87 84.8789 393.174 88.5312 389.698 91.1875C386.26 93.8438 381.905 95.1719 376.631 95.1719C371.475 95.1719 367.002 93.7852 363.213 91.0117C359.424 88.1992 356.495 84.3711 354.424 79.5273C352.354 74.6836 351.319 69.1758 351.319 63.0039V61.7734ZM365.85 63.0039C365.85 66.7539 366.358 70.1719 367.373 73.2578C368.389 76.3047 369.952 78.7461 372.061 80.582C374.209 82.3789 376.963 83.2773 380.323 83.2773C383.604 83.2773 386.28 82.5938 388.35 81.2266C390.42 79.8203 392.022 77.9258 393.155 75.543C394.327 73.1602 395.127 70.4844 395.557 67.5156V57.6133C395.323 55.2695 394.854 53.1016 394.151 51.1094C393.487 49.1172 392.53 47.3984 391.28 45.9531C390.069 44.5078 388.565 43.375 386.768 42.5547C384.971 41.7344 382.862 41.3242 380.44 41.3242C377.08 41.3242 374.327 42.2422 372.178 44.0781C370.03 45.875 368.428 48.3359 367.373 51.4609C366.358 54.5469 365.85 57.9844 365.85 61.7734V63.0039Z" fill="url(#paint0_linear_272_114)"/>
<defs>
<linearGradient id="paint0_linear_272_114" x1="0" y1="56" x2="524.5" y2="56" gradientUnits="userSpaceOnUse">
<stop stop-color="#0079D6"/>
<stop offset="0.591828" stop-color="#389BE6"/>
<stop offset="1" stop-color="white"/>
</linearGradient>
</defs>
</svg>
