<svg width="470" height="224" viewBox="0 0 470 224" fill="none" xmlns="http://www.w3.org/2000/svg">
<path d="M331.66 207.768C332.636 208.744 334.219 208.744 335.196 207.768L351.105 191.858C352.082 190.882 352.082 189.299 351.105 188.322C350.129 187.346 348.546 187.346 347.57 188.322L333.428 202.464L319.286 188.322C318.309 187.346 316.726 187.346 315.75 188.322C314.774 189.299 314.774 190.882 315.75 191.858L331.66 207.768ZM330.928 155L330.928 206L335.928 206L335.928 155L330.928 155Z" fill="#8CC6F3"/>
<path d="M298 157.5H335.011" stroke="#8CC6F3" stroke-width="5"/>
<path d="M28.1836 8.6875L52.4414 73.7266L76.6992 8.6875H90.1758L57.7734 94H47.1094L14.7656 8.6875H28.1836ZM21.3867 8.6875L23.6133 66.6367V94H8.55469V8.6875H21.3867ZM96.3867 8.6875V94H81.2695V66.6367L83.5547 8.6875H96.3867ZM133.073 95.1719C126.784 95.1719 121.355 93.8242 116.784 91.1289C112.214 88.3945 108.698 84.7227 106.238 80.1133C103.777 75.4648 102.546 70.2695 102.546 64.5273V62.125C102.546 55.5234 103.796 49.7812 106.296 44.8984C108.796 39.9766 112.214 36.168 116.55 33.4727C120.925 30.7773 125.866 29.4297 131.374 29.4297C137.468 29.4297 142.527 30.7578 146.55 33.4141C150.573 36.0312 153.581 39.6836 155.573 44.3711C157.566 49.0195 158.562 54.4102 158.562 60.543V66.8125H109.519V56.3242H144.206V55.2109C144.128 52.75 143.659 50.4453 142.8 48.2969C141.941 46.1484 140.573 44.4102 138.698 43.082C136.863 41.7539 134.402 41.0898 131.316 41.0898C128.23 41.0898 125.632 41.9688 123.523 43.7266C121.413 45.4453 119.812 47.8867 118.718 51.0508C117.624 54.1758 117.077 57.8672 117.077 62.125V64.5273C117.077 68.1211 117.741 71.3438 119.07 74.1953C120.398 77.0469 122.331 79.3125 124.87 80.9922C127.409 82.6328 130.437 83.4531 133.952 83.4531C137.351 83.4531 140.359 82.7891 142.976 81.4609C145.632 80.1328 147.917 78.2188 149.831 75.7188L157.448 83.3359C155.456 86.3438 152.448 89.0781 148.425 91.5391C144.441 93.9609 139.323 95.1719 133.073 95.1719ZM190.327 95.1719C184.038 95.1719 178.608 93.8242 174.038 91.1289C169.467 88.3945 165.952 84.7227 163.491 80.1133C161.03 75.4648 159.799 70.2695 159.799 64.5273V62.125C159.799 55.5234 161.049 49.7812 163.549 44.8984C166.049 39.9766 169.467 36.168 173.803 33.4727C178.178 30.7773 183.12 29.4297 188.627 29.4297C194.721 29.4297 199.78 30.7578 203.803 33.4141C207.827 36.0312 210.834 39.6836 212.827 44.3711C214.819 49.0195 215.815 54.4102 215.815 60.543V66.8125H166.772V56.3242H201.459V55.2109C201.381 52.75 200.913 50.4453 200.053 48.2969C199.194 46.1484 197.827 44.4102 195.952 43.082C194.116 41.7539 191.655 41.0898 188.569 41.0898C185.483 41.0898 182.885 41.9688 180.776 43.7266C178.666 45.4453 177.065 47.8867 175.971 51.0508C174.877 54.1758 174.33 57.8672 174.33 62.125V64.5273C174.33 68.1211 174.995 71.3438 176.323 74.1953C177.651 77.0469 179.584 79.3125 182.123 80.9922C184.663 82.6328 187.69 83.4531 191.205 83.4531C194.604 83.4531 197.612 82.7891 200.229 81.4609C202.885 80.1328 205.17 78.2188 207.084 75.7188L214.702 83.3359C212.709 86.3438 209.702 89.0781 205.678 91.5391C201.694 93.9609 196.577 95.1719 190.327 95.1719ZM248.869 41.3242H212.892V30.6016H248.869V41.3242ZM237.619 15.0742V76.1289C237.619 78.082 237.892 79.5664 238.439 80.582C238.986 81.5586 239.767 82.2227 240.783 82.5742C241.798 82.9258 242.97 83.1016 244.298 83.1016C245.275 83.1016 246.212 83.043 247.111 82.9258C248.009 82.8086 248.732 82.6914 249.279 82.5742V93.7656C248.107 94.1562 246.74 94.4883 245.177 94.7617C243.654 95.0352 241.857 95.1719 239.787 95.1719C236.545 95.1719 233.654 94.5859 231.115 93.4141C228.615 92.2422 226.642 90.3477 225.197 87.7305C223.791 85.0742 223.087 81.5586 223.087 77.1836V15.0742H237.619ZM304.43 41.3242H268.453V30.6016H304.43V41.3242ZM293.18 15.0742V76.1289C293.18 78.082 293.453 79.5664 294 80.582C294.547 81.5586 295.328 82.2227 296.344 82.5742C297.359 82.9258 298.531 83.1016 299.859 83.1016C300.836 83.1016 301.773 83.043 302.672 82.9258C303.57 82.8086 304.293 82.6914 304.84 82.5742V93.7656C303.668 94.1562 302.301 94.4883 300.738 94.7617C299.215 95.0352 297.418 95.1719 295.348 95.1719C292.105 95.1719 289.215 94.5859 286.676 93.4141C284.176 92.2422 282.203 90.3477 280.758 87.7305C279.352 85.0742 278.648 81.5586 278.648 77.1836V15.0742H293.18ZM322.249 94H307.718V4H322.249V94ZM315.042 60.0742C315.081 54.1758 316.116 48.9219 318.148 44.3125C320.218 39.7031 323.109 36.0703 326.82 33.4141C330.53 30.7578 334.866 29.4297 339.827 29.4297C344.007 29.4297 347.64 30.2305 350.726 31.832C353.851 33.3945 356.273 35.9336 357.991 39.4492C359.71 42.9258 360.57 47.5742 360.57 53.3945V94H345.98V53.2773C345.98 50.3086 345.55 47.9453 344.691 46.1875C343.831 44.4297 342.562 43.1797 340.882 42.4375C339.241 41.6953 337.23 41.3242 334.847 41.3242C332.347 41.3242 330.159 41.8125 328.284 42.7891C326.409 43.7266 324.827 45.0547 323.538 46.7734C322.249 48.4922 321.292 50.4844 320.667 52.75C320.042 55.0156 319.73 57.4375 319.73 60.0156L315.042 60.0742ZM395.616 95.1719C389.327 95.1719 383.897 93.8242 379.327 91.1289C374.756 88.3945 371.241 84.7227 368.78 80.1133C366.319 75.4648 365.088 70.2695 365.088 64.5273V62.125C365.088 55.5234 366.338 49.7812 368.838 44.8984C371.338 39.9766 374.756 36.168 379.092 33.4727C383.467 30.7773 388.409 29.4297 393.916 29.4297C400.01 29.4297 405.069 30.7578 409.092 33.4141C413.116 36.0312 416.123 39.6836 418.116 44.3711C420.108 49.0195 421.104 54.4102 421.104 60.543V66.8125H372.061V56.3242H406.748V55.2109C406.67 52.75 406.202 50.4453 405.342 48.2969C404.483 46.1484 403.116 44.4102 401.241 43.082C399.405 41.7539 396.944 41.0898 393.858 41.0898C390.772 41.0898 388.174 41.9688 386.065 43.7266C383.955 45.4453 382.354 47.8867 381.26 51.0508C380.166 54.1758 379.62 57.8672 379.62 62.125V64.5273C379.62 68.1211 380.284 71.3438 381.612 74.1953C382.94 77.0469 384.873 79.3125 387.413 80.9922C389.952 82.6328 392.979 83.4531 396.495 83.4531C399.893 83.4531 402.901 82.7891 405.518 81.4609C408.174 80.1328 410.459 78.2188 412.373 75.7188L419.991 83.3359C417.998 86.3438 414.991 89.0781 410.967 91.5391C406.983 93.9609 401.866 95.1719 395.616 95.1719Z" fill="black"/>
<path d="M44.0039 206H29.0039V120.688H44.0039V206ZM70.6055 132.875H2.63672V120.688H70.6055V132.875ZM101.316 207.172C95.0266 207.172 89.5969 205.824 85.0266 203.129C80.4563 200.395 76.9406 196.723 74.4797 192.113C72.0188 187.465 70.7883 182.27 70.7883 176.527V174.125C70.7883 167.523 72.0383 161.781 74.5383 156.898C77.0383 151.977 80.4563 148.168 84.7922 145.473C89.1672 142.777 94.1086 141.43 99.6164 141.43C105.71 141.43 110.769 142.758 114.792 145.414C118.816 148.031 121.823 151.684 123.816 156.371C125.808 161.02 126.804 166.41 126.804 172.543V178.812H77.7609V168.324H112.448V167.211C112.37 164.75 111.902 162.445 111.042 160.297C110.183 158.148 108.816 156.41 106.941 155.082C105.105 153.754 102.644 153.09 99.5578 153.09C96.4719 153.09 93.8742 153.969 91.7648 155.727C89.6555 157.445 88.0539 159.887 86.9602 163.051C85.8664 166.176 85.3195 169.867 85.3195 174.125V176.527C85.3195 180.121 85.9836 183.344 87.3117 186.195C88.6398 189.047 90.5734 191.312 93.1125 192.992C95.6516 194.633 98.6789 195.453 102.195 195.453C105.593 195.453 108.601 194.789 111.218 193.461C113.874 192.133 116.159 190.219 118.073 187.719L125.691 195.336C123.698 198.344 120.691 201.078 116.667 203.539C112.683 205.961 107.566 207.172 101.316 207.172ZM166.069 163.168C166.069 159.887 165.151 157.27 163.315 155.316C161.518 153.363 158.784 152.387 155.112 152.387C152.924 152.387 151.01 152.777 149.37 153.559C147.729 154.301 146.459 155.316 145.561 156.605C144.662 157.895 144.213 159.359 144.213 161H129.682C129.682 157.602 130.756 154.418 132.905 151.449C135.053 148.441 138.08 146.02 141.987 144.184C145.932 142.348 150.58 141.43 155.932 141.43C160.698 141.43 164.936 142.23 168.647 143.832C172.358 145.434 175.268 147.855 177.377 151.098C179.526 154.34 180.6 158.402 180.6 163.285V191.234C180.6 194.203 180.815 196.82 181.245 199.086C181.674 201.352 182.28 203.324 183.061 205.004V206H168.178C167.514 204.477 166.987 202.504 166.596 200.082C166.245 197.66 166.069 195.297 166.069 192.992V163.168ZM168.295 176.352H158.334C153.178 176.352 149.291 177.309 146.674 179.223C144.096 181.098 142.807 183.656 142.807 186.898C142.807 189.398 143.666 191.488 145.385 193.168C147.104 194.809 149.526 195.629 152.651 195.629C155.502 195.629 157.983 195.062 160.092 193.93C162.241 192.758 163.92 191.332 165.131 189.652C166.342 187.934 166.967 186.332 167.006 184.848L171.635 191.352C171.166 192.953 170.366 194.672 169.233 196.508C168.139 198.305 166.674 200.023 164.838 201.664C163.041 203.266 160.893 204.594 158.393 205.648C155.932 206.664 153.061 207.172 149.78 207.172C145.639 207.172 141.948 206.352 138.705 204.711C135.463 203.07 132.905 200.824 131.03 197.973C129.194 195.082 128.276 191.84 128.276 188.246C128.276 181.527 130.795 176.371 135.834 172.777C140.873 169.184 148.022 167.387 157.28 167.387H168.178L168.295 176.352ZM202.638 206H188.048V142.602H201.759L202.638 155.551V206ZM195.314 172.074C195.314 166.176 196.252 160.922 198.127 156.312C200.041 151.703 202.873 148.07 206.623 145.414C210.373 142.758 215.041 141.43 220.627 141.43C226.369 141.43 231.095 143.168 234.806 146.645C238.517 150.121 240.373 155.824 240.373 163.754V206H225.841V165.102C225.841 162.133 225.373 159.789 224.435 158.07C223.537 156.352 222.248 155.141 220.568 154.438C218.927 153.695 216.955 153.324 214.65 153.324C212.033 153.324 209.806 153.812 207.97 154.789C206.173 155.727 204.709 157.055 203.576 158.773C202.443 160.492 201.603 162.484 201.056 164.75C200.548 167.016 200.295 169.438 200.295 172.016L195.314 172.074ZM232.638 170.023C232.677 164.828 233.634 160.062 235.509 155.727C237.384 151.391 240.158 147.934 243.83 145.355C247.502 142.738 252.033 141.43 257.423 141.43C261.72 141.43 265.412 142.23 268.498 143.832C271.584 145.395 273.966 147.914 275.646 151.391C277.326 154.828 278.166 159.398 278.166 165.102V206H263.576V164.984C263.576 161.898 263.107 159.516 262.17 157.836C261.271 156.117 259.982 154.945 258.302 154.32C256.662 153.656 254.709 153.324 252.443 153.324C250.295 153.324 248.4 153.715 246.759 154.496C245.158 155.277 243.81 156.371 242.716 157.777C241.662 159.145 240.841 160.766 240.255 162.641C239.709 164.477 239.435 166.469 239.435 168.617L232.638 170.023Z" fill="url(#paint0_linear_355_2)"/>
<defs>
<linearGradient id="paint0_linear_355_2" x1="1.02086e-06" y1="112" x2="229.315" y2="75.8953" gradientUnits="userSpaceOnUse">
<stop stop-color="#017FE0"/>
<stop offset="1" stop-color="#8FC2E9"/>
</linearGradient>
</defs>
</svg>
